<svg xmlns="http://www.w3.org/2000/svg" viewBox="0 0 1024 1024" width="1024" height="1024">
  <defs>
    <!-- Fundo escuro profundo -->
    <linearGradient id="bg" x1="0%" y1="0%" x2="100%" y2="100%">
      <stop offset="0%" stop-color="#0A0F1E"/>
      <stop offset="100%" stop-color="#111827"/>
    </linearGradient>

    <!-- Gradiente dourado para o escudo -->
    <linearGradient id="goldGrad" x1="0%" y1="0%" x2="100%" y2="100%">
      <stop offset="0%" stop-color="#FFE566"/>
      <stop offset="40%" stop-color="#F5C518"/>
      <stop offset="100%" stop-color="#C8860A"/>
    </linearGradient>

    <!-- Gradiente azul para o cadeado -->
    <linearGradient id="blueGrad" x1="0%" y1="0%" x2="100%" y2="100%">
      <stop offset="0%" stop-color="#60A5FA"/>
      <stop offset="100%" stop-color="#1D4ED8"/>
    </linearGradient>

    <!-- Brilho dourado -->
    <linearGradient id="goldShine" x1="0%" y1="0%" x2="0%" y2="100%">
      <stop offset="0%" stop-color="#FFF0A0"/>
      <stop offset="50%" stop-color="#F5C518"/>
      <stop offset="100%" stop-color="#A06800"/>
    </linearGradient>

    <!-- Brilho do cadeado -->
    <linearGradient id="blueShine" x1="0%" y1="0%" x2="0%" y2="100%">
      <stop offset="0%" stop-color="#93C5FD"/>
      <stop offset="100%" stop-color="#1E40AF"/>
    </linearGradient>

    <!-- Glow dourado -->
    <filter id="goldGlow" x="-25%" y="-25%" width="150%" height="150%">
      <feGaussianBlur in="SourceGraphic" stdDeviation="20" result="blur"/>
      <feColorMatrix in="blur" type="matrix"
        values="1 0.8 0 0 0
                0.8 0.6 0 0 0
                0   0   0 0 0
                0   0   0 1 0" result="goldBlur"/>
      <feMerge>
        <feMergeNode in="goldBlur"/>
        <feMergeNode in="SourceGraphic"/>
      </feMerge>
    </filter>

    <!-- Glow azul -->
    <filter id="blueGlow" x="-25%" y="-25%" width="150%" height="150%">
      <feGaussianBlur in="SourceGraphic" stdDeviation="16" result="blur"/>
      <feMerge>
        <feMergeNode in="blur"/>
        <feMergeNode in="SourceGraphic"/>
      </feMerge>
    </filter>

    <!-- Sombra suave -->
    <filter id="shadow">
      <feDropShadow dx="0" dy="8" stdDeviation="20" flood-color="#000" flood-opacity="0.5"/>
    </filter>
  </defs>

  <!-- Fundo -->
  <rect width="1024" height="1024" rx="230" ry="230" fill="url(#bg)"/>

  <!-- Brilho central sutil -->
  <radialGradient id="centerGlow" cx="50%" cy="45%" r="45%">
    <stop offset="0%" stop-color="#F5C518" stop-opacity="0.08"/>
    <stop offset="100%" stop-color="#0A0F1E" stop-opacity="0"/>
  </radialGradient>
  <rect width="1024" height="1024" rx="230" ry="230" fill="url(#centerGlow)"/>

  <!-- ═══ ESCUDO (dourado) ═══ -->
  <g filter="url(#goldGlow)">
    <!-- Sombra do escudo -->
    <path d="M512 158
             L730 235
             L730 468
             Q730 638 512 762
             Q294 638 294 468
             L294 235 Z"
          fill="#F5C518" opacity="0.12" transform="translate(0,12)"/>

    <!-- Escudo preenchido dourado -->
    <path d="M512 158
             L730 235
             L730 468
             Q730 638 512 762
             Q294 638 294 468
             L294 235 Z"
          fill="url(#goldGrad)" opacity="0.18"/>

    <!-- Contorno dourado do escudo - mais grosso e brilhante -->
    <path d="M512 158
             L730 235
             L730 468
             Q730 638 512 762
             Q294 638 294 468
             L294 235 Z"
          fill="none"
          stroke="url(#goldShine)"
          stroke-width="22"
          stroke-linejoin="round"
          opacity="0.95"/>

    <!-- Linha interna do escudo (detalhe SF) -->
    <path d="M512 200
             L694 266
             L694 464
             Q694 614 512 724
             Q330 614 330 464
             L330 266 Z"
          fill="none"
          stroke="url(#goldGrad)"
          stroke-width="5"
          stroke-linejoin="round"
          opacity="0.4"/>
  </g>

  <!-- ═══ CADEADO (azul) ═══ -->
  <g filter="url(#blueGlow)">
    <!-- Arco do cadeado -->
    <path d="M430 430
             Q430 348 512 348
             Q594 348 594 430
             L594 468
             L430 468 Z"
          fill="none"
          stroke="url(#blueShine)"
          stroke-width="44"
          stroke-linecap="round"
          stroke-linejoin="round"/>

    <!-- Corpo do cadeado -->
    <rect x="384" y="460" width="256" height="188" rx="32" ry="32"
          fill="url(#blueGrad)"/>

    <!-- Brilho no topo do corpo -->
    <rect x="384" y="460" width="256" height="52" rx="32" ry="32"
          fill="white" opacity="0.12"/>

    <!-- Buraco da fechadura - círculo -->
    <circle cx="512" cy="546" r="32" fill="#0A0F1E" opacity="0.85"/>

    <!-- Buraco da fechadura - haste -->
    <rect x="498" y="566" width="28" height="44" rx="10" ry="10"
          fill="#0A0F1E" opacity="0.85"/>

    <!-- Brilho lateral no arco -->
    <path d="M440 460
             Q438 380 512 360"
          fill="none"
          stroke="white"
          stroke-width="12"
          stroke-linecap="round"
          opacity="0.25"/>
  </g>

  <!-- ═══ ESTRELINHAS decorativas (SF style) ═══ -->
  <!-- Estrela topo-esquerda -->
  <g opacity="0.5" transform="translate(220, 240)">
    <circle r="5" fill="#F5C518"/>
    <circle r="3" fill="#F5C518" transform="translate(0,-18)"/>
    <circle r="3" fill="#F5C518" transform="translate(0,18)"/>
    <circle r="3" fill="#F5C518" transform="translate(-18,0)"/>
    <circle r="3" fill="#F5C518" transform="translate(18,0)"/>
  </g>
  <!-- Estrela topo-direita -->
  <g opacity="0.35" transform="translate(804, 270)">
    <circle r="4" fill="#60A5FA"/>
    <circle r="2.5" fill="#60A5FA" transform="translate(0,-14)"/>
    <circle r="2.5" fill="#60A5FA" transform="translate(0,14)"/>
    <circle r="2.5" fill="#60A5FA" transform="translate(-14,0)"/>
    <circle r="2.5" fill="#60A5FA" transform="translate(14,0)"/>
  </g>
  <!-- Ponto brilhante menor -->
  <circle cx="768" cy="200" r="4" fill="#F5C518" opacity="0.4"/>
  <circle cx="256" cy="320" r="3" fill="#60A5FA" opacity="0.35"/>
  <circle cx="780" cy="680" r="3" fill="#F5C518" opacity="0.3"/>
</svg>
